<?xml version="1.0" standalone="no"?>
<!DOCTYPE svg PUBLIC "-//W3C//DTD SVG 20010904//EN"
 "http://www.w3.org/TR/2001/REC-SVG-20010904/DTD/svg10.dtd">
<svg version="1.0" xmlns="http://www.w3.org/2000/svg"
 width="512.000000pt" height="512.000000pt" viewBox="0 0 512.000000 512.000000"
 preserveAspectRatio="xMidYMid meet">
<metadata>
Created by potrace 1.14, written by Peter Selinger 2001-2017
</metadata>
<g transform="translate(0.000000,512.000000) scale(0.100000,-0.100000)"
fill="#000000" stroke="none">
<path d="M2379 5116 c-2 -2 -35 -6 -74 -10 -38 -3 -97 -10 -130 -16 -33 -6
-76 -13 -95 -16 -19 -3 -95 -21 -169 -40 -448 -116 -838 -342 -1179 -683 -45
-45 -107 -115 -193 -218 -38 -46 -167 -241 -211 -319 -69 -124 -130 -257 -176
-384 -31 -87 -78 -245 -86 -290 -2 -14 -7 -36 -10 -50 -3 -14 -8 -36 -10 -50
-2 -14 -7 -36 -10 -50 -7 -33 -15 -90 -24 -170 -9 -88 -8 -461 2 -535 42 -325
120 -591 251 -855 28 -58 61 -121 73 -140 12 -19 29 -48 38 -65 32 -58 148
-219 219 -304 390 -467 951 -789 1540 -885 141 -23 216 -29 390 -31 110 -2
229 1 265 5 36 5 92 12 125 15 33 4 67 9 75 10 214 43 443 110 569 166 325
146 582 322 818 560 338 342 559 738 673 1209 16 69 33 145 35 170 3 25 8 54
10 65 19 97 27 459 13 605 -60 596 -321 1143 -753 1574 -134 134 -309 269
-490 378 -62 38 -299 158 -310 158 -4 0 -21 6 -38 14 -134 60 -431 140 -602
161 -27 4 -61 9 -75 11 -30 6 -455 15 -461 10z m346 -430 c364 -26 729 -155
1040 -367 123 -84 172 -125 301 -254 181 -180 297 -341 409 -569 58 -118 145
-353 158 -431 3 -16 8 -41 12 -55 3 -14 8 -38 10 -55 3 -16 7 -37 10 -45 2 -8
7 -42 10 -75 4 -33 9 -76 11 -95 5 -43 4 -322 -1 -370 -35 -344 -137 -647
-311 -931 -172 -278 -433 -536 -718 -709 -239 -144 -560 -256 -821 -285 -33
-4 -76 -9 -95 -11 -47 -6 -330 -6 -355 -1 -11 3 -51 8 -90 12 -178 17 -441 92
-629 179 -515 240 -928 691 -1116 1221 -28 80 -76 255 -85 310 -11 64 -16 95
-21 135 -3 25 -7 56 -10 70 -7 39 -6 322 1 387 33 298 90 502 210 748 52 107
131 243 167 290 5 6 22 28 39 50 208 275 468 490 769 637 178 87 376 155 535
182 17 3 41 8 55 11 40 8 99 15 190 21 47 4 86 7 87 8 3 2 161 -3 238 -8z"/>
<path d="M3407 3415 c-1 -2 -26 -5 -55 -8 -72 -8 -171 -56 -232 -113 -51 -48
-114 -158 -125 -219 -20 -113 4 -231 65 -322 88 -132 212 -194 377 -188 167 5
308 108 373 269 27 66 35 175 19 247 -31 138 -151 271 -281 310 -33 10 -136
27 -141 24z"/>
<path d="M1590 3396 c-112 -31 -215 -118 -264 -222 -38 -79 -41 -94 -40 -199
1 -81 4 -97 36 -165 45 -96 109 -160 206 -207 157 -75 346 -45 471 76 85 83
130 185 132 301 4 240 -187 432 -425 429 -39 0 -91 -6 -116 -13z"/>
<path d="M1430 2120 c-148 -50 -189 -192 -99 -342 236 -398 636 -657 1084
-704 53 -5 264 -5 295 0 14 3 48 7 75 11 128 15 336 87 470 163 139 78 295
209 390 327 22 28 43 52 46 55 14 11 121 182 135 216 18 43 13 127 -10 172
-41 79 -146 129 -230 110 -59 -13 -113 -52 -144 -104 -197 -332 -493 -517
-847 -528 -287 -10 -554 99 -748 304 -66 69 -94 107 -170 227 -55 87 -155 124
-247 93z"/>
</g>
</svg>
